<mxfile host="app.diagrams.net" modified="2023-10-17T17:44:31.559Z" agent="Mozilla/5.0 (Windows NT 10.0; Win64; x64) AppleWebKit/537.36 (KHTML, like Gecko) Chrome/118.0.0.0 Safari/537.36" etag="i-hGDG0w3JKXZAKZ3h63" version="22.0.0" type="github">
  <diagram id="C5RBs43oDa-KdzZeNtuy" name="Page-1">
    <mxGraphModel dx="1112" dy="748" grid="1" gridSize="10" guides="1" tooltips="1" connect="1" arrows="1" fold="1" page="0" pageScale="1" pageWidth="827" pageHeight="1169" math="0" shadow="0">
      <root>
        <mxCell id="WIyWlLk6GJQsqaUBKTNV-0" />
        <mxCell id="WIyWlLk6GJQsqaUBKTNV-1" parent="WIyWlLk6GJQsqaUBKTNV-0" />
        <mxCell id="WIyWlLk6GJQsqaUBKTNV-2" value="" style="rounded=0;html=1;jettySize=auto;orthogonalLoop=1;fontSize=11;endArrow=block;endFill=0;endSize=8;strokeWidth=1;shadow=0;labelBackgroundColor=none;edgeStyle=orthogonalEdgeStyle;" parent="WIyWlLk6GJQsqaUBKTNV-1" source="WIyWlLk6GJQsqaUBKTNV-3" edge="1">
          <mxGeometry relative="1" as="geometry">
            <mxPoint x="220" y="170" as="targetPoint" />
          </mxGeometry>
        </mxCell>
        <mxCell id="WIyWlLk6GJQsqaUBKTNV-3" value="Start" style="rounded=1;whiteSpace=wrap;html=1;fontSize=12;glass=0;strokeWidth=1;shadow=0;" parent="WIyWlLk6GJQsqaUBKTNV-1" vertex="1">
          <mxGeometry x="160" y="80" width="120" height="40" as="geometry" />
        </mxCell>
        <mxCell id="rO1yi3JNqAOQRSOr27EJ-2" style="edgeStyle=orthogonalEdgeStyle;rounded=0;orthogonalLoop=1;jettySize=auto;html=1;exitX=0.5;exitY=1;exitDx=0;exitDy=0;entryX=0.5;entryY=0;entryDx=0;entryDy=0;" edge="1" parent="WIyWlLk6GJQsqaUBKTNV-1" source="rO1yi3JNqAOQRSOr27EJ-0" target="rO1yi3JNqAOQRSOr27EJ-1">
          <mxGeometry relative="1" as="geometry" />
        </mxCell>
        <mxCell id="rO1yi3JNqAOQRSOr27EJ-0" value="Store last name into list" style="rounded=1;whiteSpace=wrap;html=1;" vertex="1" parent="WIyWlLk6GJQsqaUBKTNV-1">
          <mxGeometry x="160" y="170" width="120" height="50" as="geometry" />
        </mxCell>
        <mxCell id="rO1yi3JNqAOQRSOr27EJ-4" style="edgeStyle=orthogonalEdgeStyle;rounded=0;orthogonalLoop=1;jettySize=auto;html=1;exitX=0.5;exitY=1;exitDx=0;exitDy=0;" edge="1" parent="WIyWlLk6GJQsqaUBKTNV-1" source="rO1yi3JNqAOQRSOr27EJ-1" target="rO1yi3JNqAOQRSOr27EJ-3">
          <mxGeometry relative="1" as="geometry" />
        </mxCell>
        <mxCell id="rO1yi3JNqAOQRSOr27EJ-1" value="rewrite vowels as leets" style="rounded=1;whiteSpace=wrap;html=1;" vertex="1" parent="WIyWlLk6GJQsqaUBKTNV-1">
          <mxGeometry x="160" y="260" width="120" height="60" as="geometry" />
        </mxCell>
        <mxCell id="rO1yi3JNqAOQRSOr27EJ-11" style="edgeStyle=orthogonalEdgeStyle;rounded=0;orthogonalLoop=1;jettySize=auto;html=1;exitX=0.5;exitY=1;exitDx=0;exitDy=0;entryX=0.5;entryY=0;entryDx=0;entryDy=0;" edge="1" parent="WIyWlLk6GJQsqaUBKTNV-1" source="rO1yi3JNqAOQRSOr27EJ-3" target="rO1yi3JNqAOQRSOr27EJ-6">
          <mxGeometry relative="1" as="geometry" />
        </mxCell>
        <mxCell id="rO1yi3JNqAOQRSOr27EJ-3" value="store first name into list" style="rounded=1;whiteSpace=wrap;html=1;" vertex="1" parent="WIyWlLk6GJQsqaUBKTNV-1">
          <mxGeometry x="160" y="360" width="120" height="60" as="geometry" />
        </mxCell>
        <mxCell id="rO1yi3JNqAOQRSOr27EJ-14" value="" style="edgeStyle=orthogonalEdgeStyle;rounded=0;orthogonalLoop=1;jettySize=auto;html=1;" edge="1" parent="WIyWlLk6GJQsqaUBKTNV-1" source="rO1yi3JNqAOQRSOr27EJ-6" target="rO1yi3JNqAOQRSOr27EJ-8">
          <mxGeometry relative="1" as="geometry" />
        </mxCell>
        <mxCell id="rO1yi3JNqAOQRSOr27EJ-20" value="" style="edgeStyle=orthogonalEdgeStyle;rounded=0;orthogonalLoop=1;jettySize=auto;html=1;" edge="1" parent="WIyWlLk6GJQsqaUBKTNV-1" source="rO1yi3JNqAOQRSOr27EJ-6" target="rO1yi3JNqAOQRSOr27EJ-10">
          <mxGeometry relative="1" as="geometry" />
        </mxCell>
        <mxCell id="rO1yi3JNqAOQRSOr27EJ-6" value="does first name &amp;gt; last name?" style="rhombus;whiteSpace=wrap;html=1;" vertex="1" parent="WIyWlLk6GJQsqaUBKTNV-1">
          <mxGeometry x="180" y="450" width="80" height="80" as="geometry" />
        </mxCell>
        <mxCell id="rO1yi3JNqAOQRSOr27EJ-17" value="" style="edgeStyle=orthogonalEdgeStyle;rounded=0;orthogonalLoop=1;jettySize=auto;html=1;" edge="1" parent="WIyWlLk6GJQsqaUBKTNV-1" source="rO1yi3JNqAOQRSOr27EJ-7" target="rO1yi3JNqAOQRSOr27EJ-16">
          <mxGeometry relative="1" as="geometry" />
        </mxCell>
        <mxCell id="rO1yi3JNqAOQRSOr27EJ-7" value="store answer ihnto variable underscores" style="rounded=1;whiteSpace=wrap;html=1;" vertex="1" parent="WIyWlLk6GJQsqaUBKTNV-1">
          <mxGeometry x="450" y="460" width="120" height="60" as="geometry" />
        </mxCell>
        <mxCell id="rO1yi3JNqAOQRSOr27EJ-15" style="edgeStyle=orthogonalEdgeStyle;rounded=0;orthogonalLoop=1;jettySize=auto;html=1;exitX=1;exitY=0.5;exitDx=0;exitDy=0;entryX=0;entryY=0.5;entryDx=0;entryDy=0;" edge="1" parent="WIyWlLk6GJQsqaUBKTNV-1" source="rO1yi3JNqAOQRSOr27EJ-8" target="rO1yi3JNqAOQRSOr27EJ-7">
          <mxGeometry relative="1" as="geometry" />
        </mxCell>
        <mxCell id="rO1yi3JNqAOQRSOr27EJ-8" value="first name # of characters - last name # of characters" style="rounded=1;whiteSpace=wrap;html=1;" vertex="1" parent="WIyWlLk6GJQsqaUBKTNV-1">
          <mxGeometry x="300" y="460" width="120" height="60" as="geometry" />
        </mxCell>
        <mxCell id="rO1yi3JNqAOQRSOr27EJ-21" value="" style="edgeStyle=orthogonalEdgeStyle;rounded=0;orthogonalLoop=1;jettySize=auto;html=1;" edge="1" parent="WIyWlLk6GJQsqaUBKTNV-1" source="rO1yi3JNqAOQRSOr27EJ-10" target="rO1yi3JNqAOQRSOr27EJ-19">
          <mxGeometry relative="1" as="geometry" />
        </mxCell>
        <mxCell id="rO1yi3JNqAOQRSOr27EJ-39" style="edgeStyle=orthogonalEdgeStyle;rounded=0;orthogonalLoop=1;jettySize=auto;html=1;" edge="1" parent="WIyWlLk6GJQsqaUBKTNV-1" source="rO1yi3JNqAOQRSOr27EJ-10" target="rO1yi3JNqAOQRSOr27EJ-36">
          <mxGeometry relative="1" as="geometry" />
        </mxCell>
        <mxCell id="rO1yi3JNqAOQRSOr27EJ-10" value="does first name &amp;lt; last name?" style="rhombus;whiteSpace=wrap;html=1;" vertex="1" parent="WIyWlLk6GJQsqaUBKTNV-1">
          <mxGeometry x="180" y="560" width="80" height="80" as="geometry" />
        </mxCell>
        <mxCell id="rO1yi3JNqAOQRSOr27EJ-38" style="edgeStyle=orthogonalEdgeStyle;rounded=0;orthogonalLoop=1;jettySize=auto;html=1;entryX=1;entryY=0.5;entryDx=0;entryDy=0;" edge="1" parent="WIyWlLk6GJQsqaUBKTNV-1" source="rO1yi3JNqAOQRSOr27EJ-16" target="rO1yi3JNqAOQRSOr27EJ-36">
          <mxGeometry relative="1" as="geometry" />
        </mxCell>
        <mxCell id="rO1yi3JNqAOQRSOr27EJ-16" value="add underscore number of &quot;_&quot; to last name list" style="rounded=1;whiteSpace=wrap;html=1;" vertex="1" parent="WIyWlLk6GJQsqaUBKTNV-1">
          <mxGeometry x="450" y="555" width="120" height="60" as="geometry" />
        </mxCell>
        <mxCell id="rO1yi3JNqAOQRSOr27EJ-23" value="" style="edgeStyle=orthogonalEdgeStyle;rounded=0;orthogonalLoop=1;jettySize=auto;html=1;" edge="1" parent="WIyWlLk6GJQsqaUBKTNV-1" source="rO1yi3JNqAOQRSOr27EJ-19" target="rO1yi3JNqAOQRSOr27EJ-22">
          <mxGeometry relative="1" as="geometry" />
        </mxCell>
        <mxCell id="rO1yi3JNqAOQRSOr27EJ-19" value="last name&amp;nbsp;&lt;br&gt;# of characters - first name # if characters" style="rounded=1;whiteSpace=wrap;html=1;" vertex="1" parent="WIyWlLk6GJQsqaUBKTNV-1">
          <mxGeometry x="20" y="570" width="120" height="60" as="geometry" />
        </mxCell>
        <mxCell id="rO1yi3JNqAOQRSOr27EJ-25" value="" style="edgeStyle=orthogonalEdgeStyle;rounded=0;orthogonalLoop=1;jettySize=auto;html=1;" edge="1" parent="WIyWlLk6GJQsqaUBKTNV-1" source="rO1yi3JNqAOQRSOr27EJ-22" target="rO1yi3JNqAOQRSOr27EJ-24">
          <mxGeometry relative="1" as="geometry" />
        </mxCell>
        <mxCell id="rO1yi3JNqAOQRSOr27EJ-22" value="store answer into variable underscore" style="rounded=1;whiteSpace=wrap;html=1;" vertex="1" parent="WIyWlLk6GJQsqaUBKTNV-1">
          <mxGeometry x="-130" y="570" width="120" height="60" as="geometry" />
        </mxCell>
        <mxCell id="rO1yi3JNqAOQRSOr27EJ-37" style="edgeStyle=orthogonalEdgeStyle;rounded=0;orthogonalLoop=1;jettySize=auto;html=1;exitX=1;exitY=0.5;exitDx=0;exitDy=0;" edge="1" parent="WIyWlLk6GJQsqaUBKTNV-1" source="rO1yi3JNqAOQRSOr27EJ-24" target="rO1yi3JNqAOQRSOr27EJ-36">
          <mxGeometry relative="1" as="geometry" />
        </mxCell>
        <mxCell id="rO1yi3JNqAOQRSOr27EJ-24" value="add underscore number of &quot;_&quot; to last name list" style="rounded=1;whiteSpace=wrap;html=1;" vertex="1" parent="WIyWlLk6GJQsqaUBKTNV-1">
          <mxGeometry x="-130" y="660" width="120" height="60" as="geometry" />
        </mxCell>
        <mxCell id="rO1yi3JNqAOQRSOr27EJ-26" value="yes" style="text;html=1;strokeColor=none;fillColor=none;align=center;verticalAlign=middle;whiteSpace=wrap;rounded=0;" vertex="1" parent="WIyWlLk6GJQsqaUBKTNV-1">
          <mxGeometry x="240" y="470" width="60" height="30" as="geometry" />
        </mxCell>
        <mxCell id="rO1yi3JNqAOQRSOr27EJ-27" value="no" style="text;html=1;strokeColor=none;fillColor=none;align=center;verticalAlign=middle;whiteSpace=wrap;rounded=0;" vertex="1" parent="WIyWlLk6GJQsqaUBKTNV-1">
          <mxGeometry x="180" y="525" width="60" height="30" as="geometry" />
        </mxCell>
        <mxCell id="rO1yi3JNqAOQRSOr27EJ-28" value="yes" style="text;html=1;strokeColor=none;fillColor=none;align=center;verticalAlign=middle;whiteSpace=wrap;rounded=0;" vertex="1" parent="WIyWlLk6GJQsqaUBKTNV-1">
          <mxGeometry x="140" y="580" width="60" height="30" as="geometry" />
        </mxCell>
        <mxCell id="rO1yi3JNqAOQRSOr27EJ-41" style="edgeStyle=orthogonalEdgeStyle;rounded=0;orthogonalLoop=1;jettySize=auto;html=1;" edge="1" parent="WIyWlLk6GJQsqaUBKTNV-1" source="rO1yi3JNqAOQRSOr27EJ-36" target="rO1yi3JNqAOQRSOr27EJ-40">
          <mxGeometry relative="1" as="geometry" />
        </mxCell>
        <mxCell id="rO1yi3JNqAOQRSOr27EJ-36" value="store first name into list" style="rounded=1;whiteSpace=wrap;html=1;" vertex="1" parent="WIyWlLk6GJQsqaUBKTNV-1">
          <mxGeometry x="160" y="660" width="120" height="60" as="geometry" />
        </mxCell>
        <mxCell id="rO1yi3JNqAOQRSOr27EJ-59" value="" style="edgeStyle=orthogonalEdgeStyle;rounded=0;orthogonalLoop=1;jettySize=auto;html=1;" edge="1" parent="WIyWlLk6GJQsqaUBKTNV-1" source="rO1yi3JNqAOQRSOr27EJ-40" target="rO1yi3JNqAOQRSOr27EJ-50">
          <mxGeometry relative="1" as="geometry" />
        </mxCell>
        <mxCell id="rO1yi3JNqAOQRSOr27EJ-64" value="" style="edgeStyle=orthogonalEdgeStyle;rounded=0;orthogonalLoop=1;jettySize=auto;html=1;" edge="1" parent="WIyWlLk6GJQsqaUBKTNV-1" source="rO1yi3JNqAOQRSOr27EJ-40" target="rO1yi3JNqAOQRSOr27EJ-62">
          <mxGeometry relative="1" as="geometry" />
        </mxCell>
        <mxCell id="rO1yi3JNqAOQRSOr27EJ-40" value="is last name done?" style="rhombus;whiteSpace=wrap;html=1;" vertex="1" parent="WIyWlLk6GJQsqaUBKTNV-1">
          <mxGeometry x="180" y="800" width="80" height="80" as="geometry" />
        </mxCell>
        <mxCell id="rO1yi3JNqAOQRSOr27EJ-60" style="edgeStyle=orthogonalEdgeStyle;rounded=0;orthogonalLoop=1;jettySize=auto;html=1;" edge="1" parent="WIyWlLk6GJQsqaUBKTNV-1" source="rO1yi3JNqAOQRSOr27EJ-42" target="rO1yi3JNqAOQRSOr27EJ-40">
          <mxGeometry relative="1" as="geometry">
            <Array as="points">
              <mxPoint x="380" y="760" />
              <mxPoint x="220" y="760" />
            </Array>
          </mxGeometry>
        </mxCell>
        <mxCell id="rO1yi3JNqAOQRSOr27EJ-42" value="print a letter of the first name" style="rounded=1;whiteSpace=wrap;html=1;" vertex="1" parent="WIyWlLk6GJQsqaUBKTNV-1">
          <mxGeometry x="370" y="720" width="120" height="60" as="geometry" />
        </mxCell>
        <mxCell id="rO1yi3JNqAOQRSOr27EJ-45" value="no" style="text;html=1;strokeColor=none;fillColor=none;align=center;verticalAlign=middle;whiteSpace=wrap;rounded=0;" vertex="1" parent="WIyWlLk6GJQsqaUBKTNV-1">
          <mxGeometry x="280" y="810" width="60" height="30" as="geometry" />
        </mxCell>
        <mxCell id="rO1yi3JNqAOQRSOr27EJ-47" value="yes" style="text;html=1;strokeColor=none;fillColor=none;align=center;verticalAlign=middle;whiteSpace=wrap;rounded=0;" vertex="1" parent="WIyWlLk6GJQsqaUBKTNV-1">
          <mxGeometry x="150" y="870" width="60" height="30" as="geometry" />
        </mxCell>
        <mxCell id="rO1yi3JNqAOQRSOr27EJ-50" value="end" style="rounded=1;whiteSpace=wrap;html=1;" vertex="1" parent="WIyWlLk6GJQsqaUBKTNV-1">
          <mxGeometry x="160" y="930" width="120" height="60" as="geometry" />
        </mxCell>
        <mxCell id="rO1yi3JNqAOQRSOr27EJ-65" value="" style="edgeStyle=orthogonalEdgeStyle;rounded=0;orthogonalLoop=1;jettySize=auto;html=1;" edge="1" parent="WIyWlLk6GJQsqaUBKTNV-1" source="rO1yi3JNqAOQRSOr27EJ-62" target="rO1yi3JNqAOQRSOr27EJ-42">
          <mxGeometry relative="1" as="geometry" />
        </mxCell>
        <mxCell id="rO1yi3JNqAOQRSOr27EJ-62" value="print a letter of the last name" style="rounded=1;whiteSpace=wrap;html=1;" vertex="1" parent="WIyWlLk6GJQsqaUBKTNV-1">
          <mxGeometry x="370" y="810" width="120" height="60" as="geometry" />
        </mxCell>
      </root>
    </mxGraphModel>
  </diagram>
</mxfile>
